<?xml version="1.0" standalone="no"?>
<!DOCTYPE svg PUBLIC "-//W3C//DTD SVG 20010904//EN"
 "http://www.w3.org/TR/2001/REC-SVG-20010904/DTD/svg10.dtd">
<svg version="1.0" xmlns="http://www.w3.org/2000/svg"
 width="897.000000pt" height="897.000000pt" viewBox="0 0 897.000000 897.000000"
 preserveAspectRatio="xMidYMid meet">

<g transform="translate(0.000000,897.000000) scale(0.100000,-0.100000)"
fill="#000000" stroke="none">
<path d="M22 8568 c-20 -10 -22 -16 -16 -52 3 -23 13 -57 21 -76 8 -19 36
-105 62 -190 27 -85 70 -216 96 -290 26 -74 67 -200 91 -280 24 -80 48 -154
54 -165 5 -11 32 -87 59 -170 126 -384 168 -493 274 -720 41 -88 78 -171 82
-184 4 -13 36 -85 71 -159 35 -74 64 -142 64 -152 0 -19 38 -110 73 -175 16
-30 21 -58 22 -116 0 -73 -2 -79 -40 -135 -22 -32 -55 -74 -73 -94 -18 -19
-49 -59 -70 -89 l-37 -53 3 -102 c3 -116 24 -239 51 -300 29 -66 33 -139 16
-251 -9 -55 -18 -122 -21 -150 -3 -27 -14 -84 -24 -125 -11 -41 -24 -122 -30
-179 -11 -114 -32 -172 -92 -256 -47 -65 -88 -149 -88 -177 0 -30 25 -195 51
-328 28 -146 86 -328 117 -370 69 -91 191 -231 249 -285 60 -55 67 -67 96
-150 30 -88 31 -94 31 -290 l1 -200 57 -160 c52 -149 110 -296 154 -390 30
-64 106 -155 191 -227 43 -37 127 -110 188 -163 135 -117 252 -180 362 -195
180 -25 315 -83 488 -210 102 -76 449 -310 458 -310 3 0 40 -20 83 -43 44 -24
123 -63 176 -86 53 -23 116 -55 141 -71 24 -15 62 -31 83 -34 21 -3 182 -8
356 -11 l317 -5 176 55 c97 31 211 63 253 71 149 30 195 51 276 125 32 29 74
57 98 64 152 48 297 108 382 159 l56 34 183 -5 c162 -5 191 -3 268 16 48 11
100 21 116 21 73 0 291 108 462 228 168 118 240 168 356 245 50 33 124 95 166
136 93 93 112 140 140 350 18 137 20 146 61 210 56 88 124 237 133 290 4 24
16 50 28 59 252 204 417 405 461 561 10 35 22 116 26 180 25 337 26 299 -9
365 -17 32 -45 75 -61 96 -61 77 -62 90 -34 256 22 127 26 186 29 396 l3 247
45 51 c97 107 122 213 112 472 -10 278 -26 314 -217 514 -105 110 -158 179
-158 206 0 6 25 48 55 93 30 45 55 85 55 89 0 19 182 283 289 419 35 44 85
117 112 161 94 156 290 448 366 546 11 14 41 66 68 115 26 50 73 123 104 164
72 94 122 170 168 251 21 36 65 100 98 143 107 137 128 179 129 257 1 105 -34
129 -149 99 -22 -6 -76 -19 -121 -29 -45 -11 -94 -24 -109 -30 -42 -16 -198
-50 -305 -66 -134 -20 -222 -46 -334 -99 -54 -25 -125 -52 -159 -59 -110 -24
-420 -107 -447 -120 -14 -7 -119 -43 -235 -80 -115 -38 -226 -74 -245 -81 -19
-7 -98 -30 -175 -53 -151 -43 -221 -68 -388 -139 l-108 -46 -62 31 c-97 48
-276 119 -342 135 -144 37 -359 43 -805 26 -19 -1 -85 12 -146 29 -60 16 -146
35 -190 42 -49 7 -86 19 -99 30 -11 10 -38 25 -60 33 -22 8 -87 33 -145 55
-58 22 -135 46 -171 52 -66 11 -74 11 -274 -19 -159 -23 -257 -32 -468 -42
-268 -12 -325 -20 -397 -57 -246 -128 -308 -163 -400 -229 -101 -72 -107 -75
-149 -69 -49 7 -244 125 -329 200 -124 110 -220 164 -577 332 -27 13 -68 30
-90 39 -22 9 -70 34 -106 56 -36 22 -116 59 -176 84 -61 24 -133 57 -159 73
-27 16 -96 50 -154 76 -136 62 -179 84 -270 140 -41 25 -81 46 -90 46 -8 0
-68 27 -133 60 -65 33 -129 60 -142 60 -12 0 -49 14 -80 30 -60 31 -112 37
-153 18z m95 -44 c-3 -3 -12 -4 -19 -1 -8 3 -5 6 6 6 11 1 17 -2 13 -5z m100
-40 c-3 -3 -12 -4 -19 -1 -8 3 -5 6 6 6 11 1 17 -2 13 -5z m1151 -552 c15 -10
57 -31 94 -48 37 -16 71 -38 76 -49 5 -11 33 -51 62 -90 60 -81 166 -255 210
-347 17 -35 56 -111 86 -170 30 -59 54 -114 54 -123 0 -19 -44 -20 -96 -1 -22
7 -82 37 -134 66 -94 51 -120 67 -313 188 -53 34 -102 62 -107 62 -6 0 -10 4
-10 9 0 5 -19 20 -42 34 -24 14 -56 37 -73 51 -16 15 -46 37 -65 49 -38 23
-199 143 -215 160 -5 6 4 1 22 -11 17 -12 35 -22 41 -22 5 0 15 -7 22 -15 11
-13 15 -13 23 -3 6 9 7 8 3 -4 -7 -24 27 -43 43 -24 12 15 -1 32 -17 22 -4 -2
-8 6 -8 19 0 13 4 21 8 19 5 -3 6 -9 3 -14 -3 -4 5 -10 16 -13 15 -4 20 -11
16 -21 -4 -10 -1 -16 8 -16 8 0 15 5 15 11 0 6 7 9 15 6 8 -4 17 -1 21 5 5 7
2 8 -6 3 -9 -5 -11 -4 -6 4 4 6 12 9 17 5 5 -3 7 -10 4 -15 -11 -16 17 -10 34
9 9 9 25 19 36 20 11 2 21 7 23 12 2 4 12 6 23 3 11 -3 28 2 38 11 10 9 21 13
26 9 4 -5 4 -2 0 6 -6 11 -4 13 8 8 10 -3 17 -2 17 3 0 6 -5 10 -11 10 -5 0
-7 5 -3 12 6 9 9 9 12 0 5 -16 32 -15 32 1 0 8 3 8 9 -2 7 -11 13 -10 31 7 13
12 27 19 31 16 10 -6 24 16 24 40 0 11 7 21 15 23 9 3 11 1 5 -4 -14 -11 -17
-33 -4 -33 5 0 7 -5 3 -12 -4 -7 -3 -8 5 -4 6 4 9 12 6 17 -4 5 3 9 14 9 14 0
19 5 15 15 -4 8 -10 13 -14 10 -5 -3 -10 -2 -12 2 -1 5 -22 18 -44 29 l-42 22
-21 -29 c-13 -18 -30 -29 -44 -28 l-22 0 23 10 c14 5 20 13 16 21 -5 7 -2 9 9
5 19 -7 28 13 13 28 -6 6 -22 19 -36 28 -13 9 -21 17 -16 17 4 0 20 -8 34 -18z
m6809 2 c-3 -3 -12 -4 -19 -1 -8 3 -5 6 6 6 11 1 17 -2 13 -5z m-6730 -96 c-3
-7 -5 -2 -5 12 0 14 2 19 5 13 2 -7 2 -19 0 -25z m-94 -10 c29 2 38 0 28 -6
-7 -6 -11 -15 -7 -21 5 -7 1 -9 -8 -5 -9 3 -16 10 -16 16 0 5 -10 8 -22 6 -11
-2 -22 3 -24 10 -1 7 -1 9 2 4 2 -4 23 -6 47 -4z m64 -20 c-3 -8 -6 -5 -6 6
-1 11 2 17 5 13 3 -3 4 -12 1 -19z m-139 -8 c-7 -10 -14 -18 -15 -16 -6 6 9
36 18 36 5 0 4 -9 -3 -20z m36 -34 c-3 -8 -12 -12 -20 -9 -17 6 -9 23 11 23 8
0 12 -6 9 -14z m-74 -10 c0 -3 -4 -8 -10 -11 -5 -3 -10 -1 -10 4 0 6 5 11 10
11 6 0 10 -2 10 -4z m45 -25 c3 -5 2 -12 -3 -15 -5 -3 -9 1 -9 9 0 17 3 19 12
6z m2996 -27 c37 -14 93 -36 125 -50 49 -22 56 -28 39 -34 -11 -4 -61 -5 -111
-2 -109 6 -194 -8 -334 -53 -58 -18 -132 -41 -165 -51 -127 -37 -374 -154
-456 -216 -104 -78 -270 -258 -316 -343 -25 -48 -52 -148 -55 -202 -1 -44 43
-153 63 -153 7 0 10 -3 7 -6 -12 -11 -87 19 -118 47 -17 16 -34 29 -38 29 -7
0 -28 37 -50 90 -10 24 -11 24 -11 -10 -1 -47 33 -99 93 -145 61 -46 109 -63
183 -66 76 -2 175 17 185 36 5 8 16 15 24 15 20 0 105 45 187 98 42 28 84 66
110 101 49 65 87 103 140 138 20 14 37 30 37 34 0 5 5 9 11 9 6 0 28 13 48 28
62 48 192 119 466 255 207 103 251 120 365 143 14 3 34 10 45 15 59 27 199 67
265 77 73 10 545 9 640 -2 105 -12 136 -19 184 -41 28 -12 63 -25 78 -29 24
-5 121 -46 186 -78 30 -15 20 -21 -98 -58 -89 -27 -180 -79 -180 -101 0 -5
-20 -18 -44 -28 -60 -26 -107 -70 -159 -149 -24 -37 -70 -103 -101 -146 -59
-82 -68 -100 -129 -246 -76 -184 -98 -254 -118 -366 -11 -68 -9 -208 4 -221 7
-6 294 59 381 88 33 10 87 19 120 19 59 0 60 0 109 -52 106 -114 175 -200 207
-259 l32 -61 -26 -61 c-14 -34 -28 -73 -31 -87 -3 -14 -24 -50 -45 -80 -63
-89 -74 -113 -66 -155 9 -45 76 -121 115 -130 15 -3 61 -20 102 -36 88 -36
262 -69 366 -69 70 0 147 9 271 30 47 8 162 60 265 119 112 64 266 225 332
348 44 83 61 108 73 108 6 0 31 -28 55 -63 25 -34 78 -96 120 -136 138 -136
161 -189 177 -400 17 -229 15 -314 -8 -379 -25 -71 -61 -117 -155 -198 -39
-35 -97 -86 -127 -114 -73 -68 -151 -113 -344 -203 -190 -88 -256 -116 -351
-147 -120 -40 -229 -81 -252 -94 -55 -29 -75 -124 -90 -422 -5 -99 16 -241 41
-281 6 -10 41 -41 78 -69 59 -44 75 -50 140 -59 89 -11 295 -12 363 0 28 4 52
6 54 4 2 -1 -46 -27 -105 -57 -154 -76 -286 -147 -304 -161 -8 -7 -42 -27 -75
-46 -91 -49 -138 -92 -164 -149 -23 -47 -23 -54 -11 -93 16 -49 67 -104 125
-133 22 -11 47 -25 55 -32 24 -18 130 -51 185 -56 28 -3 82 -9 120 -13 92 -9
93 -9 100 -16 3 -3 -27 -14 -67 -23 -40 -10 -100 -28 -133 -40 -33 -13 -112
-33 -175 -44 -63 -12 -149 -32 -190 -43 -67 -20 -81 -28 -135 -83 -56 -57 -86
-108 -113 -193 -8 -25 -7 -45 5 -85 17 -62 42 -88 112 -117 46 -20 63 -22 173
-18 121 5 225 29 268 62 8 6 35 22 60 35 25 13 59 36 75 50 17 15 41 35 54 46
l23 20 -8 -60 c-4 -33 -7 -67 -6 -75 1 -18 -35 -145 -51 -180 -17 -35 -173
-191 -232 -230 -27 -19 -104 -71 -170 -115 -66 -45 -178 -121 -250 -169 -71
-49 -159 -100 -195 -113 -36 -14 -69 -28 -75 -33 -42 -32 -331 -75 -500 -74
-136 1 -332 20 -405 39 -30 7 -93 21 -140 31 -47 9 -151 36 -231 60 -117 35
-161 44 -222 44 -90 0 -133 -13 -286 -87 -153 -73 -253 -168 -236 -222 3 -12
39 -31 98 -55 191 -75 249 -85 480 -87 l181 0 -35 -33 c-36 -34 -86 -55 -142
-61 -70 -7 -223 -48 -415 -112 -101 -33 -215 -40 -328 -19 -49 9 -155 18 -236
20 -81 3 -156 10 -167 15 -11 6 -32 11 -48 11 -15 0 -50 11 -78 24 -27 13 -90
43 -140 66 -85 39 -126 62 -305 168 -103 62 -245 159 -282 194 -17 16 -45 38
-62 50 -17 12 -50 39 -74 59 -23 20 -73 49 -110 64 -37 15 -74 30 -82 34 -8 5
-40 14 -70 20 -111 26 -261 73 -320 102 -33 16 -64 29 -69 29 -12 0 -194 140
-204 157 -4 7 -27 26 -50 42 -23 16 -73 60 -112 97 -59 58 -80 89 -133 194
-34 69 -62 130 -62 136 0 7 -17 54 -39 105 -21 52 -42 112 -46 134 -4 22 -10
44 -13 50 -4 5 -7 15 -9 20 -1 6 -9 37 -19 70 -9 33 -20 79 -24 102 -8 47 -1
153 9 153 4 0 22 -35 41 -77 43 -100 131 -263 142 -263 4 0 8 -5 8 -11 0 -19
126 -185 203 -268 45 -48 129 -90 165 -83 13 3 27 14 31 25 7 19 -9 123 -31
202 -6 22 -13 49 -15 59 -14 77 -66 271 -83 309 -22 50 -65 98 -124 137 -63
43 -180 133 -216 168 -19 18 -77 68 -129 110 -51 42 -126 104 -166 137 -87 72
-196 211 -258 332 -13 24 -41 159 -52 248 -1 11 -8 40 -14 64 -7 23 -14 62
-16 85 -8 81 -17 131 -26 142 -24 30 19 143 91 239 50 67 68 121 75 235 4 52
18 138 32 190 25 95 30 125 58 321 l16 106 -31 79 c-35 88 -65 276 -58 361 5
53 0 45 157 273 135 196 184 291 106 206 -18 -20 -35 -36 -38 -36 -3 0 -11 17
-17 38 -7 20 -28 75 -48 122 -45 105 -49 170 -20 295 27 118 74 214 117 239
29 16 39 17 84 8 29 -6 86 -16 127 -22 41 -7 97 -16 123 -21 26 -5 62 -9 80
-9 57 0 61 -12 22 -63 -20 -26 -31 -47 -25 -47 13 0 50 42 89 100 14 21 53 69
86 106 33 37 74 85 90 106 28 35 184 159 251 200 16 10 70 43 119 73 50 30 99
59 110 65 11 5 52 37 90 70 222 190 462 365 585 425 30 15 62 31 70 36 130 78
204 92 650 114 69 4 128 9 131 11 4 2 73 11 155 19 81 9 150 18 153 21 11 11
172 -11 232 -32z m-3034 20 c-3 -3 -12 -4 -19 -1 -8 3 -5 6 6 6 11 1 17 -2 13
-5z m5958 -259 c-16 -14 -42 -32 -57 -40 -27 -15 -32 -25 -29 -52 2 -18 -16
-25 -23 -7 -3 8 -2 13 2 10 5 -3 9 2 9 11 0 13 -3 12 -17 -4 -9 -11 -25 -23
-37 -27 -24 -8 -40 -85 -20 -98 8 -5 6 -8 -6 -8 -11 0 -15 -5 -11 -11 3 -6 0
-22 -7 -36 -11 -20 -11 -26 1 -34 12 -8 12 -12 3 -16 -16 -6 -17 -46 -2 -76
10 -21 10 -21 -5 -3 -15 18 -16 19 -16 2 0 -13 -5 -16 -17 -12 -14 6 -14 4 2
-14 15 -17 16 -23 6 -29 -9 -6 -10 -11 -2 -15 8 -5 7 -12 -4 -22 -9 -10 -13
-24 -9 -40 4 -17 2 -24 -7 -24 -9 0 -14 -12 -15 -34 -1 -34 0 -34 22 -18 21
16 21 17 3 20 -11 2 -17 8 -13 13 3 5 10 6 16 3 7 -5 8 -2 3 7 -5 8 1 6 12 -4
12 -10 23 -14 26 -9 3 4 -3 15 -14 22 -18 14 -27 58 -11 62 26 5 61 4 57 -3
-3 -4 -14 -5 -25 -2 -28 8 -38 -24 -14 -47 19 -19 20 -19 66 10 27 17 51 30
55 30 5 0 -8 -10 -27 -22 -19 -12 -37 -25 -40 -28 -3 -3 -38 -28 -79 -55 -41
-27 -112 -80 -159 -118 -46 -38 -100 -76 -120 -84 -20 -8 -50 -25 -66 -37 -17
-13 -60 -35 -96 -50 -36 -15 -81 -38 -100 -50 -30 -20 -67 -38 -175 -87 -63
-28 -75 -29 -75 -9 0 22 36 90 117 219 29 47 53 88 53 92 0 5 21 39 47 76 132
191 403 433 585 523 33 16 76 43 96 60 20 16 41 30 47 30 5 0 28 14 49 30 48
36 63 40 21 5z m-140 -135 c-19 -8 -19 -9 -1 -9 11 -1 17 -4 13 -7 -3 -4 -13
-4 -22 0 -20 7 -10 26 13 25 14 0 13 -2 -3 -9z m-6364 -122 c17 -34 43 -80 57
-103 29 -45 152 -290 176 -349 33 -81 27 -79 -159 43 -122 80 -181 131 -177
154 2 9 7 17 10 17 4 0 7 19 7 43 0 23 4 45 9 48 5 4 9 18 9 33 0 14 3 23 8
20 5 -3 6 2 3 10 -3 8 3 34 14 58 13 30 16 51 11 66 -16 42 1 21 32 -40z
m6363 37 c3 -8 1 -15 -4 -15 -6 0 -10 7 -10 15 0 8 2 15 4 15 2 0 6 -7 10 -15z
m3 -41 c-3 -4 4 -14 15 -24 19 -15 20 -19 7 -32 -13 -13 -16 -13 -29 0 -13 14
-12 15 3 9 9 -3 17 -2 17 4 0 5 -7 12 -15 15 -18 7 -20 34 -3 34 6 0 9 -3 5
-6z m-50 -249 c0 -8 -4 -12 -9 -9 -5 3 -6 10 -3 15 9 13 12 11 12 -6z m963 -9
c0 -2 -8 -10 -17 -17 -16 -13 -17 -12 -4 4 13 16 21 21 21 13z m-51 -53 c-8
-9 -31 -32 -51 -51 -21 -19 -35 -39 -31 -46 3 -6 2 -8 -2 -3 -11 10 -86 -63
-78 -76 3 -6 1 -7 -5 -3 -8 5 -11 0 -9 -16 4 -22 22 -29 22 -8 0 14 26 30 37
24 15 -10 8 -23 -9 -17 -10 3 -15 3 -11 -1 12 -14 63 -14 90 0 39 20 48 17 13
-5 -16 -10 -69 -54 -116 -97 -119 -109 -174 -155 -223 -184 -23 -14 -57 -37
-76 -51 -47 -35 -100 -65 -129 -74 -19 -6 -22 -4 -14 9 18 33 586 616 600 616
3 0 -1 -8 -8 -17z m-108 -136 c-6 -8 -8 -17 -4 -20 3 -4 1 -7 -5 -7 -15 0 -15
13 0 28 16 16 23 15 9 -1z m-1156 -1282 c-16 -14 -33 -25 -37 -25 -5 0 -8 -5
-8 -11 0 -5 6 -7 13 -3 7 4 9 3 4 -2 -5 -5 -17 -10 -28 -10 -36 -3 -40 -4 -35
-13 3 -4 -1 -17 -9 -27 -14 -18 -15 -18 -9 0 7 17 6 17 -25 1 -21 -10 -31 -22
-27 -30 3 -8 1 -17 -4 -20 -6 -4 -10 -1 -10 4 0 6 -5 11 -11 11 -5 0 -8 -4 -4
-9 3 -5 0 -13 -6 -17 -8 -4 -9 -3 -5 4 11 18 1 15 -37 -11 -18 -12 -32 -28
-30 -34 4 -12 -24 -26 -38 -17 -5 3 -9 0 -9 -5 0 -6 5 -11 10 -11 6 0 10 -4
10 -10 0 -5 -7 -7 -15 -4 -8 4 -15 1 -15 -6 0 -7 11 -9 30 -6 17 2 30 1 30 -3
0 -4 12 -8 26 -9 20 -1 24 1 16 11 -8 9 -4 12 14 13 13 1 24 -2 24 -8 0 -5 -4
-6 -10 -3 -5 3 -10 -1 -10 -9 0 -19 30 -22 31 -3 0 10 2 10 6 0 2 -7 9 -13 14
-13 6 0 7 5 3 12 -5 7 -3 8 7 2 24 -15 38 -13 32 4 -5 11 -3 13 8 7 11 -6 12
-5 2 6 -18 18 -16 30 2 23 10 -4 15 0 15 11 0 9 5 13 10 10 6 -4 8 -11 5 -16
-4 -5 -1 -9 4 -9 6 0 11 5 11 11 0 5 4 8 9 4 5 -3 12 -1 16 4 3 6 -4 8 -15 6
-15 -3 -20 1 -18 13 2 9 -3 16 -9 15 -7 -2 -13 2 -13 7 0 15 16 12 30 -5 7 -8
16 -13 20 -10 5 3 11 1 15 -5 3 -5 11 -10 16 -10 6 0 7 5 3 12 -4 7 -3 8 4 4
8 -5 12 1 13 16 0 22 1 22 8 3 6 -14 3 -25 -10 -36 -11 -9 -19 -19 -19 -22 0
-9 35 -3 43 8 5 6 6 2 3 -9 -5 -13 -2 -17 9 -12 8 3 15 2 15 -2 0 -5 -12 -13
-27 -19 -28 -11 -28 -11 7 -8 19 1 47 3 63 4 18 1 27 7 28 19 0 10 3 12 6 5 2
-7 9 -13 14 -13 6 0 8 4 4 9 -3 6 3 8 13 6 10 -2 25 1 33 5 11 7 9 13 -9 31
-13 11 -20 24 -16 28 4 3 9 0 11 -7 3 -6 9 -10 14 -6 5 3 9 -2 9 -10 0 -9 8
-14 20 -13 11 1 20 4 20 7 0 3 9 6 21 7 12 1 27 10 35 20 14 17 14 17 8 0 -4
-10 -16 -23 -28 -28 -11 -5 -28 -13 -36 -18 -44 -27 -128 -52 -206 -61 -143
-16 -229 -12 -412 20 -1 0 2 8 7 18 9 17 72 63 241 175 41 27 86 58 100 68 37
27 50 22 15 -6z m55 -65 c-12 -8 -12 -10 -1 -10 8 0 12 -3 8 -6 -3 -3 -15 -3
-28 1 -17 6 -19 9 -8 16 8 5 21 9 29 9 13 0 13 -1 0 -10z m-69 -23 c-10 -9
-11 -8 -5 6 3 10 9 15 12 12 3 -3 0 -11 -7 -18z m47 -33 c-3 -14 -5 -12 -10 9
-3 19 -2 25 4 19 6 -6 8 -18 6 -28z m49 7 c0 -11 -5 -18 -9 -15 -4 3 -5 11 -1
19 7 21 12 19 10 -4z m-171 -7 c8 3 13 2 10 -3 -12 -19 -46 -19 -57 1 -10 18
-9 19 11 8 12 -6 28 -9 36 -6z m-26 -42 c-8 -3 -18 -10 -22 -16 -5 -7 -8 -7
-8 2 0 7 -4 10 -10 7 -15 -9 -12 -25 5 -25 8 0 15 -7 15 -16 0 -14 -2 -14 -16
1 -14 13 -19 14 -25 3 -6 -9 -9 -4 -9 15 0 16 4 26 9 23 5 -3 14 0 20 8 7 8
21 12 34 8 15 -4 17 -7 7 -10z m274 3 c4 -10 -1 -15 -15 -15 -17 0 -18 2 -7
15 16 18 15 18 22 0z m-164 1 c0 -3 -4 -8 -10 -11 -5 -3 -10 -1 -10 4 0 6 5
11 10 11 6 0 10 -2 10 -4z m114 -27 c-6 -11 -24 -2 -24 11 0 5 7 7 15 4 8 -4
12 -10 9 -15z m-360 -37 c2 -4 -5 -9 -17 -9 -17 -2 -19 0 -7 7 18 12 18 12 24
2z m371 -1 c3 -5 1 -12 -5 -16 -5 -3 -10 1 -10 9 0 18 6 21 15 7z m-254 -19
c-7 -2 -18 1 -23 6 -8 8 -4 9 13 5 13 -4 18 -8 10 -11z m1206 -1630 c39 -62
38 -53 29 -317 -3 -93 -11 -195 -18 -225 -19 -86 -103 -214 -250 -382 -81 -92
-166 -160 -245 -197 -57 -27 -59 -27 -193 -19 -164 9 -265 31 -347 74 -156 82
-199 162 -134 250 40 55 66 77 146 119 39 20 76 42 82 47 7 6 86 48 176 93 90
46 186 97 213 114 27 16 67 39 90 50 38 20 109 89 231 228 59 66 107 137 135
201 23 51 31 48 85 -36z"/>
<path d="M1045 7631 c-3 -5 -1 -12 5 -16 5 -3 10 1 10 9 0 18 -6 21 -15 7z"/>
<path d="M2798 6110 c-176 -31 -568 -244 -568 -308 0 -12 7 -10 28 10 65 61
283 174 442 229 135 48 153 51 212 35 109 -29 110 -35 7 -34 l-95 1 -55 -44
c-31 -24 -92 -70 -136 -102 -131 -95 -350 -328 -490 -522 -52 -72 -68 -104
-97 -190 -21 -64 -20 -89 3 -150 66 -172 221 -424 339 -550 158 -169 184 -192
245 -223 35 -18 70 -32 78 -32 10 -1 9 -5 -5 -15 -52 -39 -257 4 -336 70 -23
19 -50 45 -60 57 -16 18 -19 20 -20 7 0 -22 24 -49 84 -93 88 -66 211 -102
310 -92 50 5 74 15 141 59 44 28 113 85 154 125 40 40 99 93 130 119 31 26 88
77 127 113 80 75 176 151 182 145 2 -2 -5 -19 -16 -37 -11 -18 -43 -85 -71
-148 -29 -63 -60 -133 -71 -155 -25 -53 -34 -101 -21 -110 6 -3 11 -14 11 -24
0 -27 37 -70 75 -85 69 -29 335 -29 410 0 11 4 -11 -14 -50 -41 -182 -125
-290 -230 -346 -338 -27 -52 -37 -82 -31 -90 5 -7 14 -39 21 -71 6 -33 17 -69
25 -81 8 -12 36 -62 61 -111 26 -49 73 -127 104 -174 65 -99 253 -290 314
-321 23 -12 74 -41 112 -65 91 -56 225 -106 225 -84 0 6 -26 22 -57 36 -173
75 -299 153 -353 218 -23 27 -39 51 -37 53 3 2 33 -10 68 -26 142 -68 360
-122 546 -136 88 -7 131 -2 408 45 273 47 293 51 440 85 318 75 343 83 399
134 25 23 61 89 81 146 32 96 45 302 26 430 -22 159 -106 386 -191 521 -22 35
-40 66 -40 68 0 18 -152 199 -230 274 -42 41 -191 142 -208 142 -19 0 -14 20
6 21 23 2 132 -2 157 -6 23 -3 53 -13 77 -26 10 -5 25 -9 35 -9 20 0 115 -53
164 -91 40 -31 49 -35 49 -19 0 34 -138 124 -239 157 -166 53 -347 35 -526
-52 -49 -24 -138 -67 -197 -94 -59 -28 -146 -72 -192 -100 -129 -76 -374 -228
-441 -274 -131 -89 -159 -106 -166 -102 -4 3 -52 -2 -108 -11 -169 -27 -317 3
-350 72 -29 58 -18 109 59 274 40 85 79 162 86 171 8 8 19 31 25 50 12 35 49
74 181 192 76 68 108 115 108 159 0 36 -51 127 -122 220 -35 45 -78 103 -94
128 -17 25 -80 117 -139 205 -131 193 -231 328 -282 381 -67 69 -202 105 -315
84z m2080 -1377 c-10 -2 -28 -2 -40 0 -13 2 -5 4 17 4 22 1 32 -1 23 -4z m62
-13 c6 -11 9 -20 8 -20 -2 0 -11 9 -21 20 -9 11 -13 20 -7 20 5 0 14 -9 20
-20z m-133 4 c-3 -3 -12 -4 -19 -1 -8 3 -5 6 6 6 11 1 17 -2 13 -5z m-92 -44
c-3 -5 -12 -10 -18 -10 -7 0 -6 4 3 10 19 12 23 12 15 0z m275 -74 c0 -12 4
-27 10 -34 5 -7 3 -6 -6 2 -16 14 -28 70 -13 60 5 -3 9 -15 9 -28z m-445 -6
c-3 -5 -12 -10 -18 -10 -7 0 -6 4 3 10 19 12 23 12 15 0z m-180 -110 c-3 -5
-12 -10 -18 -10 -7 0 -6 4 3 10 19 12 23 12 15 0z m660 -17 c4 -10 9 -103 11
-208 5 -215 2 -231 -67 -395 -38 -90 -53 -113 -104 -163 -33 -32 -87 -79 -120
-103 -101 -77 -320 -172 -437 -189 -23 -4 -47 -9 -52 -12 -14 -9 -192 -4 -278
7 -151 21 -324 95 -410 178 -80 76 -102 114 -99 171 2 51 27 85 67 95 14 4 22
11 19 16 -3 6 3 10 14 10 12 0 21 5 21 12 0 6 3 9 6 6 3 -4 33 9 67 28 34 19
127 66 207 105 80 39 148 75 151 81 3 5 9 -4 12 -22 15 -70 39 -140 59 -165
l21 -27 29 32 c38 44 53 100 51 187 -2 40 1 72 5 71 9 -2 30 7 110 43 34 16
66 29 71 29 9 0 112 43 151 63 14 8 44 19 67 27 23 7 40 17 36 23 -3 6 -2 7 3
4 6 -3 40 5 77 17 36 13 68 21 71 18 4 -3 6 0 6 6 0 7 3 11 8 11 4 -1 9 0 12
1 3 1 12 3 20 5 8 2 49 15 90 29 91 30 96 31 105 9z m-765 -37 c0 -2 -7 -7
-16 -10 -8 -3 -12 -2 -9 4 6 10 25 14 25 6z m-140 -133 c17 -29 19 -41 11 -60
-14 -30 -47 -30 -55 0 -5 21 9 97 18 97 2 0 14 -17 26 -37z m-220 -86 c0 -2
-10 -12 -22 -23 l-23 -19 19 23 c18 21 26 27 26 19z m-75 -67 c-3 -5 -16 -15
-28 -21 -19 -9 -19 -8 3 10 28 23 34 26 25 11z m-75 -44 c0 -2 -8 -10 -17 -17
-16 -13 -17 -12 -4 4 13 16 21 21 21 13z m-90 -70 c0 -2 -7 -7 -16 -10 -8 -3
-12 -2 -9 4 6 10 25 14 25 6z m-50 -40 c0 -2 -7 -7 -16 -10 -8 -3 -12 -2 -9 4
6 10 25 14 25 6z m-40 -29 c0 -2 -10 -12 -22 -23 l-23 -19 19 23 c18 21 26 27
26 19z m-59 -90 c-10 -9 -11 -8 -5 6 3 10 9 15 12 12 3 -3 0 -11 -7 -18z"/>
<path d="M1025 5070 c-10 -16 -8 -17 74 -34 126 -26 135 -46 74 -152 -142
-246 -179 -404 -177 -754 1 -153 14 -236 56 -365 50 -153 114 -272 183 -340
74 -74 208 -186 298 -249 84 -60 253 -146 284 -146 46 0 12 -19 -45 -25 -89
-10 -155 -26 -145 -36 14 -14 203 16 248 39 40 20 194 179 207 212 3 9 36 50
72 91 37 41 87 105 113 144 l48 70 -1 92 c-1 85 -4 98 -37 165 -60 120 -86
161 -198 313 -70 94 -261 300 -377 407 -81 74 -83 77 -151 158 -30 36 -87 99
-126 140 -39 41 -90 100 -113 131 -63 87 -113 125 -174 133 -28 4 -63 10 -78
13 -16 3 -31 0 -35 -7z m505 -460 c12 -16 19 -30 16 -30 -2 0 -14 14 -26 30
-12 17 -19 30 -16 30 2 0 14 -13 26 -30z m-66 -89 c-7 -29 -11 -58 -8 -62 3
-5 0 -9 -6 -9 -12 0 -8 35 12 98 16 52 18 33 2 -27z m182 -32 c19 -22 19 -22
-3 -10 -24 12 -39 31 -25 31 5 0 17 -10 28 -21z m50 -50 c19 -22 19 -22 -3 -8
-13 8 -23 17 -23 21 0 12 6 9 26 -13z m54 -61 c0 -6 -7 -5 -15 2 -8 7 -15 17
-15 22 0 6 7 5 15 -2 8 -7 15 -17 15 -22z m40 -33 c7 -9 8 -15 2 -15 -5 0 -12
7 -16 15 -3 8 -4 15 -2 15 2 0 9 -7 16 -15z m-343 -47 c-3 -8 -6 -5 -6 6 -1
11 2 17 5 13 3 -3 4 -12 1 -19z m18 -17 c-3 -5 5 -13 17 -16 12 -4 45 -23 75
-42 29 -18 59 -31 65 -27 7 4 8 3 4 -4 -4 -7 -1 -12 8 -12 9 0 16 -4 16 -10 0
-5 7 -7 15 -4 8 4 15 2 15 -3 0 -11 128 -70 142 -65 4 1 8 -3 8 -10 0 -6 3 -9
6 -5 15 15 37 -28 44 -86 8 -68 40 -141 64 -150 19 -8 52 33 67 84 8 25 15 34
23 28 82 -68 125 -99 135 -99 7 0 9 -4 6 -10 -3 -5 -2 -10 3 -10 4 0 30 -39
57 -87 40 -72 48 -95 46 -133 -2 -55 -41 -139 -94 -201 l-38 -44 -72 1 c-112
1 -167 24 -282 119 -55 46 -116 98 -136 117 -37 34 -104 155 -133 240 -8 26
-20 56 -25 65 -14 26 -37 143 -52 256 -11 85 -11 100 2 108 18 11 22 11 14 0z
m505 -162 c0 -29 -3 -37 -14 -33 -20 8 -39 59 -31 84 6 20 8 21 26 4 12 -11
19 -30 19 -55z m75 -65 c9 -15 12 -23 6 -20 -11 7 -35 46 -28 46 3 0 12 -12
22 -26z m89 -120 c3 -8 2 -12 -4 -9 -6 3 -10 10 -10 16 0 14 7 11 14 -7z"/>
<path d="M5883 3564 c-4 -171 -29 -259 -97 -349 -30 -38 -52 -72 -50 -74 7 -7
102 89 134 134 43 62 50 103 43 247 -8 173 -27 199 -30 42z"/>
<path d="M2550 3117 c-61 -24 -149 -86 -197 -139 -163 -175 -335 -412 -389
-534 -30 -69 -47 -179 -39 -264 6 -65 49 -214 68 -237 14 -19 30 -16 22 5 -4
9 -9 35 -10 57 -1 22 -10 66 -20 99 -13 44 -16 78 -11 134 3 41 8 77 10 79 3
3 8 -12 12 -33 3 -22 11 -44 16 -50 5 -7 8 -16 6 -20 -4 -14 62 -205 92 -264
30 -58 204 -300 217 -300 5 0 36 -26 70 -58 303 -281 329 -302 478 -370 90
-42 127 -53 203 -63 90 -11 96 -11 185 16 51 15 112 39 137 51 25 13 48 24 53
24 20 0 191 149 273 237 219 238 221 241 239 365 4 22 0 51 -10 73 -8 21 -15
53 -15 71 0 39 -68 176 -128 257 -37 50 -220 227 -322 312 -53 45 -225 174
-394 298 -66 48 -123 91 -126 95 -5 7 -85 59 -196 127 -47 28 -122 54 -154 54
-8 0 -40 -10 -70 -22z m155 -49 c3 -2 7 -34 9 -69 3 -35 8 -104 11 -154 9
-139 30 -322 42 -380 4 -16 7 -34 8 -40 4 -40 30 -167 41 -199 8 -21 19 -67
24 -103 6 -35 18 -85 27 -111 9 -26 24 -85 33 -131 l17 -84 -71 7 c-39 4 -89
11 -110 17 -51 14 -157 64 -189 89 -28 22 -63 121 -127 355 -21 75 -68 384
-86 558 -6 51 -4 61 21 97 15 21 60 65 101 97 56 44 84 59 116 63 43 5 124 -2
133 -12z m209 -113 c27 -19 52 -38 55 -43 3 -4 24 -21 46 -38 22 -16 44 -32
50 -37 5 -4 37 -27 70 -52 66 -48 151 -116 195 -155 27 -24 29 -30 35 -133 3
-59 8 -113 10 -120 2 -6 6 -32 9 -57 2 -25 15 -90 29 -145 14 -55 31 -138 37
-185 6 -46 18 -99 25 -117 l14 -33 -51 -15 c-101 -30 -267 -48 -368 -41 l-95
8 -16 41 c-25 66 -70 225 -84 302 -7 39 -18 82 -23 96 -29 75 -82 461 -98 717
l-7 104 59 -32 c33 -17 81 -46 108 -65z m-618 -165 c2 -22 9 -69 15 -103 6
-34 14 -93 19 -132 4 -38 15 -97 24 -130 9 -32 16 -71 16 -85 0 -28 48 -222
78 -317 11 -35 18 -63 16 -63 -10 0 -144 77 -188 108 -63 44 -124 112 -181
201 -5 8 -16 21 -22 29 -7 7 -13 22 -13 32 0 10 -5 22 -11 26 -19 11 -5 137
20 179 11 20 21 43 21 51 0 18 101 149 180 234 19 21 21 20 26 -30z m1338
-414 c54 -50 102 -93 105 -96 23 -18 91 -114 116 -162 25 -50 27 -59 14 -74
-45 -55 -260 -180 -318 -186 -32 -3 -34 -1 -47 42 -7 25 -18 79 -24 120 -6 41
-23 127 -37 190 -31 138 -31 138 -39 270 l-7 104 69 -58 c38 -32 114 -100 168
-150z"/>
<path d="M5680 2669 c-271 -20 -604 -147 -805 -306 -151 -119 -320 -313 -385
-442 -29 -56 -32 -69 -26 -115 4 -28 7 -62 7 -76 0 -44 26 -85 108 -167 103
-104 201 -169 334 -221 110 -44 276 -82 351 -82 53 0 211 26 249 42 27 11 33
37 6 29 -23 -7 -170 -19 -234 -20 l-60 0 63 20 c34 11 62 24 62 28 0 5 19 20
43 34 80 47 231 201 260 267 4 8 15 29 25 45 68 111 168 309 178 352 4 15 15
46 25 68 10 22 20 60 24 85 4 24 9 48 11 51 2 4 6 42 9 85 7 96 -18 192 -64
242 -18 19 -24 32 -16 32 24 0 139 -57 170 -84 45 -40 65 -50 65 -31 0 8 -4
15 -9 15 -5 0 -19 16 -32 35 -32 47 -101 90 -174 110 -32 8 -62 14 -65 14 -3
-1 -57 -6 -120 -10z"/>
<path d="M7816 6658 c3 -5 10 -6 15 -3 13 9 11 12 -6 12 -8 0 -12 -4 -9 -9z"/>
<path d="M6634 5234 c0 -9 -7 -18 -17 -20 -34 -5 -30 -13 5 -10 23 2 32 7 30
18 -2 12 4 14 25 10 16 -2 25 -2 21 2 -3 4 -20 10 -36 12 -24 4 -30 1 -28 -12z"/>
</g>
</svg>
